<?xml version="1.0" encoding="UTF-8"?>
<svg width="1024px" height="683px" viewBox="0 0 1024 683" version="1.1" xmlns="http://www.w3.org/2000/svg" xmlns:xlink="http://www.w3.org/1999/xlink">
    <!-- Generator: Sketch 44.1 (41455) - http://www.bohemiancoding.com/sketch -->
    <title>bg-enterprise-hero</title>
    <desc>Created with Sketch.</desc>
    <defs>
        <path d="M38.7,8.4 C32.8,1.5 22.7,-1.3 14.3,1.2 C5.9,3.7 1.8,11.5 0.7,20.4 C-0.4,29.4 2.2,37.4 2.2,37.4 C11.2,44.1 27.5,40.6 27.5,40.6 C27.5,40.6 43.2,30.7 47,20.3 C47,20.3 44.6,15.3 38.7,8.4 Z" id="path-1"></path>
        <path d="M38.7,8.4 C32.8,1.5 22.7,-1.3 14.3,1.2 C5.9,3.7 1.8,11.5 0.7,20.4 C-0.4,29.4 2.2,37.4 2.2,37.4 C11.2,44.1 27.5,40.6 27.5,40.6 C27.5,40.6 43.2,30.7 47,20.3 C47,20.3 44.6,15.3 38.7,8.4 Z" id="path-3"></path>
        <path d="M24.6,3.6 C24.6,3.6 27.9,10.4 19.2,18.1 L16.4,18.1 C16.4,18.1 2.2,16.9 0.9,6.2 C0.9,6.1 15.6,-4.1 24.6,3.6 Z" id="path-5"></path>
        <path d="M24.6,3.6 C24.6,3.6 27.9,10.4 19.2,18.1 L16.4,18.1 C16.4,18.1 2.2,16.9 0.9,6.2 C0.9,6.1 15.6,-4.1 24.6,3.6 Z" id="path-7"></path>
        <path d="M21.7,13.5 C20.4,8 12.5,6.4 12.5,6.4 L11.8,0.2 C11.8,0.2 5.4,1.7 4,4.1 C2.5,6.5 -5.55111512e-17,8.4 0.4,13.4 C1.3,24.1 9.6,25.8 9.6,25.8 L13.6,25.8 C21.1,21.5 22.1,15 21.7,13.5 Z" id="path-9"></path>
        <path d="M21.7,13.5 C20.4,8 12.5,6.4 12.5,6.4 L11.8,0.2 C11.8,0.2 5.4,1.7 4,4.1 C2.5,6.5 -5.55111512e-17,8.4 0.4,13.4 C1.3,24.1 9.6,25.8 9.6,25.8 L13.6,25.8 C21.1,21.5 22.1,15 21.7,13.5 Z" id="path-11"></path>
        <path d="M5.6,7.2 C5.6,7.2 3.2,11.4 2.7,13.2 C2.2,15 0.7,17.8 0.7,18.2 C0.7,18.6 0.5,18.6 0.5,18.9 C0.5,19.2 0.8,19.4 0.8,19.4 C0.8,19.4 8.4,16.8 15.2,16.3 C22,15.8 26.1,11.7 30.7,11.3 C35.3,10.8 36.7,11.6 36.7,11.6 C36.7,11.6 36.9,11.1 36.7,10.9 C36.7,10.9 36.9,10.5 36.8,10.4 C36.7,10.3 36.4,10.2 36.4,10.2 C36.4,10.2 36.5,6.6 30.9,0.3 C30.8,0.1 15,0.7 5.6,7.2 Z" id="path-13"></path>
        <path d="M5.6,7.2 C5.6,7.2 3.2,11.4 2.7,13.2 C2.2,15 0.7,17.8 0.7,18.2 C0.7,18.6 0.5,18.6 0.5,18.9 C0.5,19.2 0.8,19.4 0.8,19.4 C0.8,19.4 8.4,16.8 15.2,16.3 C22,15.8 26.1,11.7 30.7,11.3 C35.3,10.8 36.7,11.6 36.7,11.6 C36.7,11.6 36.9,11.1 36.7,10.9 C36.7,10.9 36.9,10.5 36.8,10.4 C36.7,10.3 36.4,10.2 36.4,10.2 C36.4,10.2 36.5,6.6 30.9,0.3 C30.8,0.1 15,0.7 5.6,7.2 Z" id="path-15"></path>
        <path d="M5.6,7.2 C5.6,7.2 3.2,11.4 2.7,13.2 C2.2,15 0.7,17.8 0.7,18.2 C0.7,18.6 0.5,18.6 0.5,18.9 C0.5,19.2 0.8,19.4 0.8,19.4 C0.8,19.4 8.4,16.8 15.2,16.3 C22,15.8 26.1,11.7 30.7,11.3 C35.3,10.8 36.7,11.6 36.7,11.6 C36.7,11.6 36.9,11.1 36.7,10.9 C36.7,10.9 36.9,10.5 36.8,10.4 C36.7,10.3 36.4,10.2 36.4,10.2 C36.4,10.2 36.5,6.6 30.9,0.3 C30.8,0.1 15,0.7 5.6,7.2 Z" id="path-17"></path>
        <path d="M14,5.8 C14,5.8 14.4,6.8 16.2,9.1 C20.7,14.9 20.6,18.1 26.6,23.4 L27.4,23.1 C27.4,23.1 27.2,23.7 26.3,23.9 C18.2,26 11.6,24.5 7.6,21.5 C3.6,18.4 0.8,15 0.6,5 C6.6,-5 14,5.8 14,5.8 Z" id="path-19"></path>
        <path d="M14,5.8 C14,5.8 14.4,6.8 16.2,9.1 C20.7,14.9 20.6,18.1 26.6,23.4 L27.4,23.1 C27.4,23.1 27.2,23.7 26.3,23.9 C18.2,26 11.6,24.5 7.6,21.5 C3.6,18.4 0.8,15 0.6,5 C6.6,-5 14,5.8 14,5.8 Z" id="path-21"></path>
        <path d="M12.9,0.1 L14.3,2 C14.3,2 8.6,11 1.2,10 C1.2,10 0.4,8.9 0.3,8.7 C0.3,8.8 9,6.5 12.9,0.1 Z" id="path-23"></path>
        <path d="M12.9,0.1 L14.3,2 C14.3,2 8.6,11 1.2,10 C1.2,10 0.4,8.9 0.3,8.7 C0.3,8.8 9,6.5 12.9,0.1 Z" id="path-25"></path>
        <path d="M16.5,7.9 C16.5,7.9 11,16.4 3.5,16.1 C3.5,16.1 3.2,16.1 3.1,16 C2.9,15.8 -2.4,5.3 4.5,1.2 C10.7,-2.5 16.5,7.4 16.5,7.5 C16.6,7.6 16.6,7.7 16.5,7.9 Z" id="path-27"></path>
        <path d="M16.5,7.9 C16.5,7.9 11,16.4 3.5,16.1 C3.5,16.1 3.2,16.1 3.1,16 C2.9,15.8 -2.4,5.3 4.5,1.2 C10.7,-2.5 16.5,7.4 16.5,7.5 C16.6,7.6 16.6,7.7 16.5,7.9 Z" id="path-29"></path>
        <path d="M8,0.7 C7.8,0.8 -0.4,4.7 2.7,13.2 C2.7,13.2 0.9,11.4 0.3,11.3 C-0.3,11.2 2.2,15.8 2.8,16 C3.3,16.2 6.9,15.8 10.2,14.9 C11.1,14.7 11.5,14.5 12.3,14.1 L8,0.7 Z" id="path-31"></path>
        <path d="M8,0.7 C7.8,0.8 -0.4,4.7 2.7,13.2 C2.7,13.2 0.9,11.4 0.3,11.3 C-0.3,11.2 2.2,15.8 2.8,16 C3.3,16.2 6.9,15.8 10.2,14.9 C11.1,14.7 11.5,14.5 12.3,14.1 L8,0.7 Z" id="path-33"></path>
        <path d="M8,0.7 C7.8,0.8 -0.4,4.7 2.7,13.2 C2.7,13.2 0.9,11.4 0.3,11.3 C-0.3,11.2 2.2,15.8 2.8,16 C3.3,16.2 6.9,15.8 10.2,14.9 C11.1,14.7 11.5,14.5 12.3,14.1 L8,0.7 Z" id="path-35"></path>
        <path d="M4,0.5 C4.2,0.6 13.4,5.7 9.7,15.8 C9.7,15.8 11.5,14 12.1,13.9 C12.7,13.8 10.2,18.4 9.6,18.6 C9.1,18.8 5.5,18.4 2.2,17.5 C1.3,17.3 0.9,17.1 0.1,16.7 L4,0.5 Z" id="path-37"></path>
        <path d="M4,0.5 C4.2,0.6 13.4,5.7 9.7,15.8 C9.7,15.8 11.5,14 12.1,13.9 C12.7,13.8 10.2,18.4 9.6,18.6 C9.1,18.8 5.5,18.4 2.2,17.5 C1.3,17.3 0.9,17.1 0.1,16.7 L4,0.5 Z" id="path-39"></path>
        <path d="M4,0.5 C4.2,0.6 13.4,5.7 9.7,15.8 C9.7,15.8 11.5,14 12.1,13.9 C12.7,13.8 10.2,18.4 9.6,18.6 C9.1,18.8 5.5,18.4 2.2,17.5 C1.3,17.3 0.9,17.1 0.1,16.7 L4,0.5 Z" id="path-41"></path>
        <path d="M35.3,2 C39.6,5.5 42.8,17.2 42.8,17.2 C42.8,17.2 51.1,26.9 44.9,37.1 C44.9,37.1 12.2,38.4 2.4,36.2 C2.4,36.2 -3.1,26.1 5.2,14.2 C7.4,11.1 7.5,6.5 9.8,2.2 C9.7,2.2 31,-1.5 35.3,2 Z" id="path-43"></path>
        <path d="M35.3,2 C39.6,5.5 42.8,17.2 42.8,17.2 C42.8,17.2 51.1,26.9 44.9,37.1 C44.9,37.1 12.2,38.4 2.4,36.2 C2.4,36.2 -3.1,26.1 5.2,14.2 C7.4,11.1 7.5,6.5 9.8,2.2 C9.7,2.2 31,-1.5 35.3,2 Z" id="path-45"></path>
        <path d="M35.3,2 C39.6,5.5 42.8,17.2 42.8,17.2 C42.8,17.2 51.1,26.9 44.9,37.1 C44.9,37.1 12.2,38.4 2.4,36.2 C2.4,36.2 -3.1,26.1 5.2,14.2 C7.4,11.1 7.5,6.5 9.8,2.2 C9.7,2.2 31,-1.5 35.3,2 Z" id="path-47"></path>
        <path d="M4.9,16.2 C4.9,16.2 17.1,4.4 25.9,0 C29.4,8.4 22.3,21.2 21.1,22.7 C17.7,26.8 16.1,28.8 5.7,30.3 C-5.4,25.3 4.9,16.2 4.9,16.2 Z" id="path-49"></path>
        <path d="M4.9,16.2 C4.9,16.2 17.1,4.4 25.9,0 C29.4,8.4 22.3,21.2 21.1,22.7 C17.7,26.8 16.1,28.8 5.7,30.3 C-5.4,25.3 4.9,16.2 4.9,16.2 Z" id="path-51"></path>
        <path d="M0.5,1.9 L2,0.8 C2,0.8 11.3,5.9 11.3,13.7 C11.3,13.7 10.3,14.6 10.1,14.8 C10.1,14.7 7.6,5.1 0.5,1.9 Z" id="path-53"></path>
        <path d="M0.5,1.9 L2,0.8 C2,0.8 11.3,5.9 11.3,13.7 C11.3,13.7 10.3,14.6 10.1,14.8 C10.1,14.7 7.6,5.1 0.5,1.9 Z" id="path-55"></path>
        <path d="M9,0.5 C9,0.5 17.7,5.7 18.3,13.5 C18.3,13.5 18.3,13.7 18.2,13.8 C18,14.1 7.6,21.7 2.2,14.6 C-3.1,7.5 8.5,0.5 8.5,0.5 C8.5,0.5 8.9,0.4 9,0.5 Z" id="path-57"></path>
        <path d="M9,0.5 C9,0.5 17.7,5.7 18.3,13.5 C18.3,13.5 18.3,13.7 18.2,13.8 C18,14.1 7.6,21.7 2.2,14.6 C-3.1,7.5 8.5,0.5 8.5,0.5 C8.5,0.5 8.9,0.4 9,0.5 Z" id="path-59"></path>
        <path d="M1.2,23.3 C2,14.2 7.4,5.2 16.5,1.6 C25.6,-2 35.7,0.8 42.5,6.8 C49.3,12.8 50.9,16.7 50.9,16.7 C50.9,16.7 50.9,32 31.7,39.7 C12.5,47.3 2,36.2 2,36.2 C2,36.2 0.4,32.4 1.2,23.3 Z" id="path-61"></path>
        <path d="M1.2,23.3 C2,14.2 7.4,5.2 16.5,1.6 C25.6,-2 35.7,0.8 42.5,6.8 C49.3,12.8 50.9,16.7 50.9,16.7 C50.9,16.7 50.9,32 31.7,39.7 C12.5,47.3 2,36.2 2,36.2 C2,36.2 0.4,32.4 1.2,23.3 Z" id="path-63"></path>
        <path d="M4.7,4.4 C4.7,4.4 16.6,-1.5 31.3,2 C31.3,2 35.4,3.9 38.6,16.7 C38.6,16.9 38.8,16.9 38.7,17.2 C38.7,17.2 35.9,18.4 32.7,17.5 C29.5,16.6 13.9,8.9 0.1,15.6 C0.1,15.6 1.40859546e-15,15.2 0.1,15 C0.2,14.7 1,14 1,13.8 C1,13.8 0.8,13.6 0.9,13.5 C1,13.4 1.2,13.4 1.3,13.1 C1.4,12.8 2.8,10 3,8.8 C3.2,7.6 4.5,4.5 4.7,4.4 Z" id="path-65"></path>
        <path d="M4.7,4.4 C4.7,4.4 16.6,-1.5 31.3,2 C31.3,2 35.4,3.9 38.6,16.7 C38.6,16.9 38.8,16.9 38.7,17.2 C38.7,17.2 35.9,18.4 32.7,17.5 C29.5,16.6 13.9,8.9 0.1,15.6 C0.1,15.6 1.40859546e-15,15.2 0.1,15 C0.2,14.7 1,14 1,13.8 C1,13.8 0.8,13.6 0.9,13.5 C1,13.4 1.2,13.4 1.3,13.1 C1.4,12.8 2.8,10 3,8.8 C3.2,7.6 4.5,4.5 4.7,4.4 Z" id="path-67"></path>
        <path d="M4.7,4.4 C4.7,4.4 16.6,-1.5 31.3,2 C31.3,2 35.4,3.9 38.6,16.7 C38.6,16.9 38.8,16.9 38.7,17.2 C38.7,17.2 35.9,18.4 32.7,17.5 C29.5,16.6 13.9,8.9 0.1,15.6 C0.1,15.6 1.40859546e-15,15.2 0.1,15 C0.2,14.7 1,14 1,13.8 C1,13.8 0.8,13.6 0.9,13.5 C1,13.4 1.2,13.4 1.3,13.1 C1.4,12.8 2.8,10 3,8.8 C3.2,7.6 4.5,4.5 4.7,4.4 Z" id="path-69"></path>
        <path d="M4.7,4.4 C4.7,4.4 16.6,-1.5 31.3,2 C31.3,2 35.4,3.9 38.6,16.7 C38.6,16.9 38.8,16.9 38.7,17.2 C38.7,17.2 35.9,18.4 32.7,17.5 C29.5,16.6 13.9,8.9 0.1,15.6 C0.1,15.6 1.40859546e-15,15.2 0.1,15 C0.2,14.7 1,14 1,13.8 C1,13.8 0.8,13.6 0.9,13.5 C1,13.4 1.2,13.4 1.3,13.1 C1.4,12.8 2.8,10 3,8.8 C3.2,7.6 4.5,4.5 4.7,4.4 Z" id="path-71"></path>
        <path d="M3.4,0.5 C3.2,0.7 -3.4,8.9 3.6,14.9 C3.6,14.9 1,14.3 0.3,14.6 C-0.4,14.9 4.2,17.5 4.9,17.4 C5.5,17.3 9,14.9 11.9,12.2 C12.7,11.5 13,11.1 13.7,10.3 L3.4,0.5 Z" id="path-73"></path>
        <path d="M3.4,0.5 C3.2,0.7 -3.4,8.9 3.6,14.9 C3.6,14.9 1,14.3 0.3,14.6 C-0.4,14.9 4.2,17.5 4.9,17.4 C5.5,17.3 9,14.9 11.9,12.2 C12.7,11.5 13,11.1 13.7,10.3 L3.4,0.5 Z" id="path-75"></path>
        <path d="M3.4,0.5 C3.2,0.7 -3.4,8.9 3.6,14.9 C3.6,14.9 1,14.3 0.3,14.6 C-0.4,14.9 4.2,17.5 4.9,17.4 C5.5,17.3 9,14.9 11.9,12.2 C12.7,11.5 13,11.1 13.7,10.3 L3.4,0.5 Z" id="path-77"></path>
        <path d="M13,0.7 C13.1,0.9 17.6,10.5 9.3,14.6 C9.3,14.6 12,14.6 12.6,15.1 C13.2,15.6 8.1,17 7.4,16.7 C6.9,16.4 4,13.2 1.9,9.9 C1.3,9 1.1,8.5 0.6,7.6 L13,0.7 Z" id="path-79"></path>
        <path d="M13,0.7 C13.1,0.9 17.6,10.5 9.3,14.6 C9.3,14.6 12,14.6 12.6,15.1 C13.2,15.6 8.1,17 7.4,16.7 C6.9,16.4 4,13.2 1.9,9.9 C1.3,9 1.1,8.5 0.6,7.6 L13,0.7 Z" id="path-81"></path>
        <path d="M13,0.7 C13.1,0.9 17.6,10.5 9.3,14.6 C9.3,14.6 12,14.6 12.6,15.1 C13.2,15.6 8.1,17 7.4,16.7 C6.9,16.4 4,13.2 1.9,9.9 C1.3,9 1.1,8.5 0.6,7.6 L13,0.7 Z" id="path-83"></path>
        <path d="M12.1,1.6 C7.8,5.1 4.7,15.9 4.7,15.9 C4.7,15.9 -4.2,25.1 2.7,35 C2.7,35 33,37.2 42.8,35 C42.8,35 49.6,21.3 39.4,2.1 C39.4,2.1 16.4,-1.9 12.1,1.6 Z" id="path-85"></path>
        <path d="M12.1,1.6 C7.8,5.1 4.7,15.9 4.7,15.9 C4.7,15.9 -4.2,25.1 2.7,35 C2.7,35 33,37.2 42.8,35 C42.8,35 49.6,21.3 39.4,2.1 C39.4,2.1 16.4,-1.9 12.1,1.6 Z" id="path-87"></path>
        <path d="M12.1,1.6 C7.8,5.1 4.7,15.9 4.7,15.9 C4.7,15.9 -4.2,25.1 2.7,35 C2.7,35 33,37.2 42.8,35 C42.8,35 49.6,21.3 39.4,2.1 C39.4,2.1 16.4,-1.9 12.1,1.6 Z" id="path-89"></path>
        <path d="M4.9,20.2 C4.9,20.2 14.8,7 23.4,0.3 C29.4,7.9 25.2,20.8 24.3,22.6 C21.6,27.6 20.3,30 9.4,34.1 C-7.5,40.5 4.9,20.2 4.9,20.2 Z" id="path-91"></path>
        <path d="M16.4,10.5 C16.4,10.5 2,-0.9 1.7,1.1 C1.7,1.1 -1.9,9.2 4.5,19 C14.4,34.2 16.4,10.5 16.4,10.5 Z" id="path-93"></path>
        <path d="M16.4,10.5 C16.4,10.5 2,-0.9 1.7,1.1 C1.7,1.1 -1.9,9.2 4.5,19 C14.4,34.2 16.4,10.5 16.4,10.5 Z" id="path-95"></path>
        <path d="M6.9,2.1 C6.9,2.1 3,10 2.4,12.5 C2.4,12.5 1.8,12.5 1.8,12.9 L1.8,13.3 C1.8,13.3 1.2,13.5 1,14.1 C0.8,14.7 1,15.3 1,15.3 C1,15.3 7,13.2 15.1,13.2 C23.2,13.2 32.7,18 35.4,18 C38.1,18 43.2,17.3 43.2,17.3 C43.2,17.3 42.9,8.6 39.9,4.7 C39.8,4.6 30,-2.5 6.9,2.1 Z" id="path-97"></path>
        <path d="M6.9,2.1 C6.9,2.1 3,10 2.4,12.5 C2.4,12.5 1.8,12.5 1.8,12.9 L1.8,13.3 C1.8,13.3 1.2,13.5 1,14.1 C0.8,14.7 1,15.3 1,15.3 C1,15.3 7,13.2 15.1,13.2 C23.2,13.2 32.7,18 35.4,18 C38.1,18 43.2,17.3 43.2,17.3 C43.2,17.3 42.9,8.6 39.9,4.7 C39.8,4.6 30,-2.5 6.9,2.1 Z" id="path-99"></path>
        <path d="M6.9,2.1 C6.9,2.1 3,10 2.4,12.5 C2.4,12.5 1.8,12.5 1.8,12.9 L1.8,13.3 C1.8,13.3 1.2,13.5 1,14.1 C0.8,14.7 1,15.3 1,15.3 C1,15.3 7,13.2 15.1,13.2 C23.2,13.2 32.7,18 35.4,18 C38.1,18 43.2,17.3 43.2,17.3 C43.2,17.3 42.9,8.6 39.9,4.7 C39.8,4.6 30,-2.5 6.9,2.1 Z" id="path-101"></path>
        <path d="M50.1,19.4 C47.6,10.7 40.5,2.9 30.9,1.1 C21.3,-0.7 11.9,4.1 6.4,11.3 C0.9,18.5 0.1,22.7 0.1,22.7 C0.1,22.7 3.1,37.7 23.4,41.5 C43.7,45.3 51.9,32.3 51.9,32.3 C51.9,32.3 52.6,28.1 50.1,19.4 L50.1,19.4 Z" id="path-103"></path>
        <path d="M50.1,19.4 C47.6,10.7 40.5,2.9 30.9,1.1 C21.3,-0.7 11.9,4.1 6.4,11.3 C0.9,18.5 0.1,22.7 0.1,22.7 C0.1,22.7 3.1,37.7 23.4,41.5 C43.7,45.3 51.9,32.3 51.9,32.3 C51.9,32.3 52.6,28.1 50.1,19.4 L50.1,19.4 Z" id="path-105"></path>
    </defs>
    <g id="Page-1" stroke="none" stroke-width="1" fill="none" fill-rule="evenodd">
        <g id="bg-enterprise-hero">
            <polygon id="Shape" fill="#365066" fill-rule="nonzero" points="604.3 433.9 549.3 424.7 534 441.3 444 381.1 366.9 474.6 325.3 446.1 207.1 535.1 185.8 512.9 134.5 553.7 108 551.2 -5.68434189e-14 649.4 616.2 649.4 604.3 433.9"></polygon>
            <polygon id="Shape" fill="#DAF0F5" fill-rule="nonzero" opacity="0.43" points="445.6 389.4 411.9 433.9 428.8 426.6 435.5 438.7 442.3 427.8 489.8 438.7 476.5 421.3 503.3 426.3"></polygon>
            <polygon id="Shape" fill="#263D4B" fill-rule="nonzero" opacity="0.79" points="444 381.1 420.5 427.3 438.2 416.9 403.7 464.3 366.9 474.6 444 381.1"></polygon>
            <path d="M445.6,446.1 L433.8,469.5 L430.8,502.1 L445.6,465.2 L445.6,446.1 Z M474.7,413 L513.1,436.6 L532,457.9 L492.2,433.9 L474.7,413 L474.7,413 Z" id="Shape" fill="#9FB3A9" fill-rule="nonzero" opacity="0.79"></path>
            <path d="M325.3,446.1 L280.7,512.9 L308.1,509.8 L248.8,562.3 L239.1,547.2 L172.7,586.8 L165.6,566.2 L97.1,631.3 L143.5,619.1 L161.2,649 L-2.84217094e-14,649.4 L108,551.2 L130.2,561.4 L134.5,553.7 L185.8,512.9 L207.1,535.1 L325.3,446.1 L325.3,446.1 Z M242,575.9 L212.6,608.3 L215,629.3 L236.6,606.7 L242,575.9 L242,575.9 Z M369.2,502.1 L355,538.2 L362.1,556.4 L375.1,537.9 L369.2,502.1 L369.2,502.1 Z" id="Shape" fill="#263D4B" fill-rule="nonzero" opacity="0.79"></path>
            <polygon id="Shape" fill="#DBE4BB" fill-rule="nonzero" points="637 142.5 640.9 142.5 640.9 216.4 637 216.4"></polygon>
            <polygon id="Shape" fill="#2B495E" fill-rule="nonzero" points="277.1 649.4 342.6 578.5 363.3 586.8 397.7 550.1 418.7 553.7 496.5 457.9 541 469.5 590.4 364 636.2 212.3 642.2 214.2 723.7 365.1 825.6 480.2 849.4 459.9 899.7 512.1 915.7 499.7 1023.5 649.4"></polygon>
            <polygon id="Shape" fill="#263D4B" fill-rule="nonzero" points="825.6 480.2 771.1 527.6 694.7 521.8 596.1 624.3 688.9 502.4 768.6 505.8 806.3 458.5 825.6 480.2"></polygon>
            <path d="M541,478.2 L500.1,465.8 L474.7,512.9 L506.3,482.6 L541,478.2 L541,478.2 Z M853.1,467.6 L881.5,527.1 L865.5,516.4 L856.3,541.4 L833.5,512.9 L788.1,535.6 L853.1,467.6 Z M636.2,212.3 L642.2,214.2 L663,252.1 L653.5,238.4 L644.5,237.1 L636.2,229.1 L624.1,251.3 L636.2,212.3 Z" id="Shape" fill="#DAF0F5" fill-rule="nonzero" opacity="0.74"></path>
            <polygon id="Shape" fill="#D44C3D" fill-rule="nonzero" points="635.9 140.5 635.9 164.6 677.8 152.5"></polygon>
            <path d="M496.5,457.9 L477.6,531.1 L505.9,499.4 L477.6,582.4 L462.2,548.2 L426.4,614.9 L461.6,592.8 L490.3,638.6 L505.9,627 L521.1,649.4 L387.8,649.4 L352.6,623.4 L332.7,649.4 L277.1,649.4 L342.6,578.5 L363.3,586.8 L397.7,550.1 L418.7,553.7 L496.5,457.9 L496.5,457.9 Z M849.4,459.9 L881.5,527.1 L865.5,516.4 L903.4,585.4 L915.8,554.6 L946.8,613.1 L923.7,607.7 L912.9,649.4 L1023.5,649.4 L915.7,499.7 L916.2,529.3 L849.4,459.9 L849.4,459.9 Z" id="Shape" fill="#263D4B" fill-rule="nonzero"></path>
            <path d="M537.2,682.7 C536.2,682.7 535.3,682.3 534.7,681.4 C533.7,680 533.9,678 535.4,677 L632,561.2 L569.1,492 C568.5,491.3 568.2,490.4 568.3,489.5 C568.4,488.6 568.9,487.8 569.7,487.2 L678,418 L637.8,354.4 C637.6,354 637.4,353.6 637.3,353.2 L636.2,217.9 C635.9,216.2 637.1,214.5 638.8,214.3 C640.5,214 642.2,215.2 642.4,216.9 L643.4,351.6 L685,417.3 C685.9,418.8 685.5,420.7 684,421.7 L576.2,490.6 L639,559.6 C639.6,560.3 639.9,561.1 639.8,562 C639.7,562.9 639.2,563.7 638.5,564.2 L539.1,682.1 C538.5,682.5 537.9,682.7 537.2,682.7 Z" id="Shape" fill="#DAF0F5" fill-rule="nonzero" opacity="0.12"></path>
            <path d="M643.2,561.3 C643.2,566.9 638.7,571.4 633.1,571.4 C627.5,571.4 623,566.9 623,561.3 C623,555.7 627.5,551.2 633.1,551.2 C638.6,551.2 643.2,555.7 643.2,561.3 Z M584.6,489.8 C584.6,495.1 580.3,499.4 575,499.4 C569.7,499.4 565.4,495.1 565.4,489.8 C565.4,484.5 569.7,480.2 575,480.2 C580.3,480.2 584.6,484.5 584.6,489.8 Z M690.3,418.9 C690.3,423.4 686.7,427 682.2,427 C677.8,427 674.1,423.4 674.1,418.9 C674.1,414.4 677.7,410.8 682.2,410.8 C686.7,410.9 690.3,414.5 690.3,418.9 Z" id="Shape" fill="#5D7886" fill-rule="nonzero"></path>
            <path d="M632.9,299.7 L609.7,351.5 L621.3,346.2 L589.2,410.9 L579.5,407.4 L572.7,438 L541,469.5 L590.4,364 L632.9,299.7 Z M607.5,412.1 L601.1,414.3 L609.6,428.7 L628.1,405.5 L607.5,412.1 Z" id="Shape" fill="#9FB3A9" fill-rule="nonzero"></path>
            <path d="M859.4,558.1 L874.8,578.5 L882.5,614.3 L859.4,586.8 L859.4,558.1 Z M769.5,586.2 L767.3,554.6 L639.6,619.1 L769.5,586.2 L769.5,586.2 Z" id="Shape" fill="#263D4B" fill-rule="nonzero"></path>
            <path d="M248.6,39.3 L19.4,39.3 C17.5,25.6 30.3,13 43,11.9 C50.2,10.8 57.8,12.9 65,16.9 C69,7.3 77.7,0.3 90,0.3 C102.5,-0.4 117.1,9.3 130.2,21.3 C131.7,9.2 139.8,0.7 155.9,1.7 C167.7,2.4 178.4,9.6 188.1,18.4 C195,-0.5 239.4,26.7 248.6,39.3 L248.6,39.3 Z M932,286.4 L721.8,286.4 C716.9,279.6 719.5,271.1 723.7,267.5 C735.3,257.5 749.9,260.5 763.1,268 C766.6,257.9 780,251.1 792.4,254.5 C802.6,257.3 810,262.1 816.4,268.2 C822,255.9 850.5,259.3 867.9,268.5 C875.6,255.8 922.1,272.9 932,286.4 L932,286.4 Z" id="Shape" fill="#DAF0F5" fill-rule="nonzero" opacity="0.68"></path>
            <polygon id="Shape" fill="#263D4B" fill-rule="nonzero" points="690.8 332.1 723 376.8 744.6 407.5 783.7 446.1 756.3 430 733.6 441.2 702.2 398.1 690.8 332.1"></polygon>
            <polygon id="Shape" fill="#E79B59" fill-rule="nonzero" points="638.2 300.1 634.7 298.8 650.8 254.3 654.4 255.6 638.2 300.1"></polygon>
            <polygon id="Shape" fill="#D7864A" fill-rule="nonzero" points="636.1 299.3 634.7 298.8 650.8 254.3 652.2 254.8"></polygon>
            <path d="M673.1,273.4 C673.1,273.4 668.7,264.6 658.7,259.2 C646.1,252.5 629.2,254.8 629.2,254.8 L631,258.3 C631,258.3 635.7,258 640,259.1 C645.8,260.5 649.3,264 649.3,264 C649.3,264 655.7,264 662.6,266.5 C668.6,268.6 673.1,273.4 673.1,273.4 L673.1,273.4 Z" id="Shape" fill="#93ABBD" fill-rule="nonzero"></path>
            <path d="M654.1,257.5 C654.3,257.6 654.5,257.6 654.6,257.7 L654.8,257.8 L655,257.9 C655.1,258 655.3,258 655.4,258.1 C655.5,258.2 655.7,258.2 655.8,258.3 C655.9,258.4 656.1,258.4 656.2,258.5 C656.5,258.6 656.8,258.8 657,258.9 C657.6,259.2 658.1,259.5 658.6,259.8 C659.6,260.4 660.6,261 661.5,261.7 C661.7,261.9 661.9,262 662.2,262.2 C662.4,262.4 662.6,262.5 662.8,262.7 C663,262.9 663.2,263 663.4,263.2 C663.6,263.4 663.8,263.5 664,263.7 C664.8,264.3 665.4,264.9 666,265.4 C666.6,265.9 667.1,266.4 667.5,266.8 L668.4,267.7 L668.7,268 L668.4,267.7 C668.2,267.5 667.9,267.2 667.4,266.8 C667,266.4 666.5,266 665.9,265.5 C665.3,265 664.6,264.5 663.8,263.9 C663,263.3 662.2,262.7 661.3,262.1 C660.4,261.5 659.4,260.9 658.4,260.3 C657.4,259.7 656.2,259.2 655.1,258.7 C655,258.6 654.8,258.6 654.7,258.5 L654.5,258.4 L654.3,258.3 C654.2,258.2 654,258.2 653.9,258.1 L653.7,258.1 L653.5,258 C653.3,257.9 653.2,257.9 653,257.8 L652.8,257.7 C652.7,257.7 652.6,257.7 652.6,257.6 L651.7,257.3 C650.5,256.9 649.2,256.6 648,256.3 C647.8,256.3 647.7,256.2 647.5,256.2 C647.3,256.2 647.2,256.1 647,256.1 C646.8,256.1 646.7,256 646.5,256 C646.3,256 646.2,255.9 646,255.9 L644.2,255.6 C643,255.4 641.9,255.3 640.8,255.2 C640.5,255.2 640.3,255.2 640,255.1 L639.2,255.1 C638.7,255.1 638.2,255.1 637.7,255 L635.1,255 C634.3,255 633.6,255.1 633.1,255.1 C632.5,255.1 632.1,255.2 631.8,255.2 C631.5,255.2 631.3,255.3 631.3,255.3 C631.3,255.3 631.5,255.3 631.8,255.2 C632.1,255.2 632.5,255.1 633.1,255 C633.7,254.9 634.3,254.9 635.1,254.8 C635.9,254.7 636.8,254.7 637.7,254.7 L640.8,254.7 C641.9,254.8 643.1,254.9 644.3,255 L646.1,255.3 C646.3,255.3 646.4,255.3 646.6,255.4 C646.8,255.4 646.9,255.5 647.1,255.5 C647.3,255.5 647.4,255.6 647.6,255.6 C647.8,255.6 647.9,255.7 648.1,255.7 C649.3,256 650.6,256.3 651.8,256.7 L652.7,257 C652.8,257 652.9,257 652.9,257.1 L653.1,257.2 C653.3,257.3 653.4,257.3 653.6,257.4 L653.8,257.5 L654.1,257.5 L654.1,257.5 Z" id="Shape" fill="#E9ECF0" fill-rule="nonzero"></path>
            <path d="M524.9,376.3 L522.5,379.2 L525.1,382.1 L529.4,382 C529.4,382 527.7,378.5 524.9,376.3 L524.9,376.3 Z" id="Shape" fill="#966945" fill-rule="nonzero"></path>
            <polygon id="Shape" fill="#875D3D" fill-rule="nonzero" points="523.1 379.9 522.5 379.2 524.9 376.3 525.2 380.2 523.1 379.9"></polygon>
            <path d="M502.5,383.1 L506.1,384.2 L505.6,388 L501.9,390.3 C501.9,390.3 501.4,386.5 502.5,383.1 L502.5,383.1 Z" id="Shape" fill="#966945" fill-rule="nonzero"></path>
            <polygon id="Shape" fill="#875D3D" fill-rule="nonzero" points="506 385 506.1 384.1 502.5 383.1 504.5 386.5"></polygon>
            <g id="Group" transform="translate(499.000000, 378.000000)">
                <g id="Clipped">
                    <mask id="mask-2" fill="white">
                        <use xlink:href="#path-1"></use>
                    </mask>
                    <g id="a"></g>
                    <path d="M38.7,8.4 C32.8,1.5 22.7,-1.3 14.3,1.2 C5.9,3.7 1.8,11.5 0.7,20.4 C-0.4,29.4 2.2,37.4 2.2,37.4 C11.2,44.1 27.5,40.6 27.5,40.6 C27.5,40.6 43.2,30.7 47,20.3 C47,20.3 44.6,15.3 38.7,8.4 Z" id="Shape" fill="#966945" fill-rule="nonzero" mask="url(#mask-2)"></path>
                </g>
            </g>
            <g id="Group" transform="translate(499.000000, 378.000000)">
                <g id="Clipped">
                    <mask id="mask-4" fill="white">
                        <use xlink:href="#path-3"></use>
                    </mask>
                    <g id="c"></g>
                    <path d="M-1,11.1 L4.3,9.2 C4.3,9.2 -0.5,22.9 6.6,34.2 C6.6,34.2 15.7,38.9 24.1,38.2 L6.2,42.5 L-0.7,38.9 L-1,11.1 Z" id="Shape" fill="#000000" fill-rule="nonzero" opacity="0.05" mask="url(#mask-4)"></path>
                </g>
            </g>
            <g id="Group" transform="translate(524.000000, 394.000000)" fill-rule="nonzero">
                <ellipse id="Oval" fill="#875D3D" transform="translate(8.475958, 6.469712) rotate(-106.740000) translate(-8.475958, -6.469712) " cx="8.47595762" cy="6.46971197" rx="3.3" ry="6.9"></ellipse>
                <ellipse id="Oval" fill="#000000" transform="translate(8.309712, 5.857042) rotate(-106.740000) translate(-8.309712, -5.857042) " cx="8.30971197" cy="5.85704238" rx="3.3" ry="6.9"></ellipse>
            </g>
            <g id="Group" transform="translate(521.000000, 397.000000)" fill-rule="nonzero">
                <path d="M3,1.6 C3.2,2.4 2.8,3.2 2,3.5 C1.2,3.7 0.4,3.3 0.1,2.5 C-0.1,1.7 0.3,0.9 1.1,0.6 C1.9,0.4 2.7,0.8 3,1.6 Z" id="Shape" fill="#B48363"></path>
                <circle id="Oval" fill="#000000" cx="1.9" cy="2.2" r="1.1"></circle>
                <circle id="Oval" fill="#FFFFFF" cx="2.2" cy="2.3" r="1"></circle>
            </g>
            <path d="M535.9,394.9 C536.1,395.7 537,396.1 537.8,395.9 C538.6,395.7 539,394.8 538.8,394 C538.6,393.2 537.7,392.8 536.9,393 C536.2,393.3 535.7,394.1 535.9,394.9 Z" id="Shape" fill="#B48363" fill-rule="nonzero"></path>
            <g id="Group" transform="translate(536.000000, 393.000000)" fill-rule="nonzero">
                <circle id="Oval" fill="#000000" cx="1.4" cy="1.9" r="1.1"></circle>
                <circle id="Oval" fill="#FFFFFF" cx="1" cy="2.2" r="1"></circle>
            </g>
            <g id="Group" transform="translate(521.000000, 425.000000)">
                <g id="Clipped">
                    <mask id="mask-6" fill="white">
                        <use xlink:href="#path-5"></use>
                    </mask>
                    <g id="e"></g>
                    <path d="M24.6,3.6 C24.6,3.6 27.9,10.4 19.2,18.1 L16.4,18.1 C16.4,18.1 2.2,16.9 0.9,6.2 C0.9,6.1 15.6,-4.1 24.6,3.6 Z" id="Shape" fill="#875D3D" fill-rule="nonzero" mask="url(#mask-6)"></path>
                </g>
            </g>
            <g id="Group" transform="translate(521.000000, 425.000000)">
                <g id="Clipped">
                    <mask id="mask-8" fill="white">
                        <use xlink:href="#path-7"></use>
                    </mask>
                    <g id="g"></g>
                    <path d="M24.7,3 C24.7,3.2 26.4,16.3 11.4,17.1 L24.7,3 Z" id="Shape" fill="#000000" fill-rule="nonzero" opacity="0.05" mask="url(#mask-8)"></path>
                </g>
            </g>
            <path d="M543.3,442.5 C543.3,443.2 541.7,443.2 540.2,443.2 C538.7,443.2 537.4,443.3 537.4,442.7 C537.4,442 539,441.1 540.5,441.1 C542,441.2 543.3,441.9 543.3,442.5 L543.3,442.5 Z" id="Shape" fill="#7A5436" fill-rule="nonzero"></path>
            <path d="M508.6,417.8 C508.1,424.2 503.8,424 503.4,430.7 C503.2,434.7 510.1,444.1 526.8,442.9 C543.5,441.7 547,433 544.9,424.3 C542.8,415.7 535.2,406.8 535.2,406.8 C535.2,406.8 509,411.5 508.6,417.8 L508.6,417.8 Z" id="Shape" fill="#B48363" fill-rule="nonzero"></path>
            <g id="Group" transform="translate(503.000000, 418.000000)">
                <g id="Clipped">
                    <g>
                        <mask id="mask-10" fill="white">
                            <use xlink:href="#path-9"></use>
                        </mask>
                        <g id="i"></g>
                        <path d="M21.7,13.5 C20.4,8 12.5,6.4 12.5,6.4 L11.8,0.2 C11.8,0.2 5.4,1.7 4,4.1 C2.5,6.5 -5.55111512e-17,8.4 0.4,13.4 C1.3,24.1 9.6,25.8 9.6,25.8 L13.6,25.8 C21.1,21.5 22.1,15 21.7,13.5 Z" id="Shape" fill="#966945" fill-rule="nonzero" mask="url(#mask-10)"></path>
                    </g>
                </g>
                <g id="Clipped">
                    <g>
                        <mask id="mask-12" fill="white">
                            <use xlink:href="#path-11"></use>
                        </mask>
                        <g id="k"></g>
                        <path d="M0.4,3.9 L4.1,6.3 C4.1,6.3 -0.1,18.2 9.6,25.5 L2.1,25.7 L-3.5,8.6 L0.4,3.9 Z" id="Shape" fill="#000000" fill-rule="nonzero" opacity="0.05" mask="url(#mask-12)"></path>
                    </g>
                </g>
                <path d="M15.7,25.2 C15.7,25.9 14.1,25.9 12.4,25.9 C10.8,25.9 9.5,26 9.5,25.4 C9.5,24.7 11.1,23.8 12.8,23.8 C14.5,23.8 15.7,24.6 15.7,25.2 L15.7,25.2 Z" id="Shape" fill="#7A5436" fill-rule="nonzero"></path>
            </g>
            <g id="Group" transform="translate(503.000000, 408.000000)">
                <path d="M0.7,19.3 C0.7,19.3 4.6,18.5 5.3,18.5 C6,18.5 5.9,18 5.9,18 L5.1,17.4 L0.7,19.3 L0.7,19.3 Z" id="Shape" fill="#000000" fill-rule="nonzero" opacity="0.1"></path>
                <g id="Clipped">
                    <g>
                        <mask id="mask-14" fill="white">
                            <use xlink:href="#path-13"></use>
                        </mask>
                        <g id="m"></g>
                        <path d="M5.6,7.2 C5.6,7.2 3.2,11.4 2.7,13.2 C2.2,15 0.7,17.8 0.7,18.2 C0.7,18.6 0.5,18.6 0.5,18.9 C0.5,19.2 0.8,19.4 0.8,19.4 C0.8,19.4 8.4,16.8 15.2,16.3 C22,15.8 26.1,11.7 30.7,11.3 C35.3,10.8 36.7,11.6 36.7,11.6 C36.7,11.6 36.9,11.1 36.7,10.9 C36.7,10.9 36.9,10.5 36.8,10.4 C36.7,10.3 36.4,10.2 36.4,10.2 C36.4,10.2 36.5,6.6 30.9,0.3 C30.8,0.1 15,0.7 5.6,7.2 Z" id="Shape" fill="#BB3331" fill-rule="nonzero" mask="url(#mask-14)"></path>
                    </g>
                </g>
                <g id="Clipped">
                    <g>
                        <mask id="mask-16" fill="white">
                            <use xlink:href="#path-15"></use>
                        </mask>
                        <g id="o"></g>
                        <path d="M8.5,3.9 L14.9,2.3 C14.9,2.3 12.5,9.3 12.5,9.5 C12.5,9.7 14.3,14.1 14.3,14.1 L15.8,16.4 L0.1,19.8 L-1.1,16.9 L8.5,3.9 Z" id="Shape" fill="#000000" fill-rule="nonzero" opacity="0.1" mask="url(#mask-16)"></path>
                    </g>
                </g>
                <g id="Clipped">
                    <g>
                        <mask id="mask-18" fill="white">
                            <use xlink:href="#path-17"></use>
                        </mask>
                        <g id="q"></g>
                        <path d="M0.4,13.9 L0.7,16.4 C0.7,16.4 0.6,17.7 1.7,17.3 C2.8,16.9 5.5,16.1 5.4,16.3 C5.3,16.5 0.7,18.3 0.3,18.6 C-0.1,18.9 0.4,13.9 0.4,13.9 L0.4,13.9 Z" id="Shape" fill="#000000" fill-rule="nonzero" opacity="0.1" mask="url(#mask-18)"></path>
                    </g>
                </g>
            </g>
            <path d="M553.8,426.6 C553.8,426.6 552.3,427.8 551.2,428 C550.1,428.2 549.5,427.7 549.5,427.7 L553.8,426.6 L553.8,426.6 Z" id="Shape" fill="#966945" fill-rule="nonzero"></path>
            <g id="Group" transform="translate(508.000000, 392.000000)" fill-rule="nonzero">
                <g opacity="0.1" transform="translate(0.000000, 16.000000)" id="Shape" fill="#000000">
                    <path d="M0.4,19.1 C0.4,19.1 6.5,28.4 15.6,27.6 L15.7,27.9 L20.4,27.2 C20.4,27.2 23.5,27.6 24.1,27.3 L38.1,21.9 L37.9,21.1 C37.6,20.2 37.2,18.8 36.9,18.7 C36.3,18.4 0.4,19.1 0.4,19.1 L0.4,19.1 Z M7.7,0.8 L6.9,1.6 L7.7,5.1 L10.3,4.3 L7.7,0.8 Z"></path>
                </g>
                <polygon id="Shape" fill="#B87D4A" points="56.616 31.372 15.63 44.04 6.15 13.372 47.137 0.702"></polygon>
                <polygon id="Shape" fill="#D8995C" points="56.57 31.3 25.9 40.78 16.422 10.11 47.09 0.632"></polygon>
                <path d="M28.6,21.5 L45.5,16.3 L47.3,22.3 L38.9,24.9 L39.2,25.9 L35.5,27.1 L35.2,26.1 L30.5,27.6 L28.6,21.5 L28.6,21.5 Z M31.1,26.2 L33,25.6 L32.1,22.6 L33,22.3 L33.9,25.3 L34.8,25 L33.6,21.1 L29.9,22.3 L31.1,26.2 L31.1,26.2 Z M34.6,20.8 L36.1,25.8 L38,25.2 L37.7,24.2 L39.6,23.6 L38.4,19.6 L34.6,20.8 L34.6,20.8 Z M36.7,21.2 L37.7,20.9 L38.3,22.9 L37.3,23.2 L36.7,21.2 Z M39.3,19.3 L40.5,23.2 L42.4,22.6 L41.5,19.6 L42.4,19.3 L43.3,22.3 L44.2,22 L43.3,19.1 L44.2,18.8 L45.1,21.7 L46,21.4 L44.8,17.5 L39.3,19.3 L39.3,19.3 Z" id="Shape" fill="#1C1510"></path>
                <polygon id="Shape" fill="#E1B283" points="39.172 11.466 31.147 13.946 28.784 6.303 36.81 3.823"></polygon>
                <path d="M8.5,20.9 C8.5,20.9 10.8,21.9 12.7,25.2 C12.7,25.2 12.9,25.4 12.8,25.6 L13.5,26.9 L13.5,27.1 C13.5,27.1 15.3,28.8 18.2,34.4 C21.1,40 23.6,41.5 23.6,41.5 L10.3,35.2 L8.5,20.9 Z" id="Shape" fill="#000000" opacity="0.1"></path>
            </g>
            <g id="Group" transform="translate(504.000000, 410.000000)">
                <g transform="translate(1.000000, 0.000000)" id="Clipped">
                    <g>
                        <mask id="mask-20" fill="white">
                            <use xlink:href="#path-19"></use>
                        </mask>
                        <g id="s"></g>
                        <path d="M29.6,25.9 L12.7,0.7 L4.3,-3.7 L-0.1,-1.3 L-1,11.6 L2.3,19.9 L7.9,24.9 C7.8,25 24.7,30.8 29.6,25.9 Z" id="Shape" fill="#875D3D" fill-rule="nonzero" mask="url(#mask-20)"></path>
                    </g>
                </g>
                <g transform="translate(1.000000, 0.000000)" id="Clipped">
                    <g>
                        <mask id="mask-22" fill="white">
                            <use xlink:href="#path-21"></use>
                        </mask>
                        <g id="u"></g>
                        <path d="M27.1,28.4 L27.6,24.1 C27.6,24.1 3.6,25.1 2.7,4.5 L-1.4,4.8 L-4.4408921e-16,18.2 C-4.4408921e-16,18.3 14.6,30.4 27.1,28.4 Z" id="Shape" fill="#000000" fill-rule="nonzero" opacity="0.05" mask="url(#mask-22)"></path>
                    </g>
                </g>
                <g id="Clipped">
                    <g transform="translate(3.000000, 7.000000)">
                        <g>
                            <mask id="mask-24" fill="white">
                                <use xlink:href="#path-23"></use>
                            </mask>
                            <g id="w"></g>
                            <path d="M13,-1 L15,2.5 C15,2.5 8.6,10.9 1.2,10 C1.2,10 0.4,8.9 0.3,8.7 C0.3,8.8 9.1,5.4 13,-1 Z" id="Shape" fill="#A52828" fill-rule="nonzero" mask="url(#mask-24)"></path>
                        </g>
                    </g>
                    <g transform="translate(3.000000, 7.000000)">
                        <g>
                            <mask id="mask-26" fill="white">
                                <use xlink:href="#path-25"></use>
                            </mask>
                            <g id="y"></g>
                            <path d="M5,10 C5,10 3.5,8.3 3.3,7.6 C3.1,6.8 0.3,8 0.3,8 L0.1,8.7 L0.7,10.5 L5,10 Z" id="Shape" fill="#000000" fill-rule="nonzero" opacity="0.1" mask="url(#mask-26)"></path>
                        </g>
                    </g>
                    <g>
                        <g>
                            <g>
                                <mask id="mask-28" fill="white">
                                    <use xlink:href="#path-27"></use>
                                </mask>
                                <g id="A"></g>
                                <path d="M17.2,9.2 C17.2,9.2 11.2,16.9 3.8,16.5 C3.8,16.5 3.1,16.6 3,16.5 C2.8,16.3 -2.8,5.4 4.6,1.2 C11.9,-3 17.2,8.1 17.2,8.1 C17.2,8.1 17.3,9 17.2,9.2 Z" id="Shape" fill="#CA3836" fill-rule="nonzero" mask="url(#mask-28)"></path>
                            </g>
                        </g>
                        <g>
                            <g>
                                <mask id="mask-30" fill="white">
                                    <use xlink:href="#path-29"></use>
                                </mask>
                                <g id="C"></g>
                                <path d="M7.7,16.4 C7.7,16.4 1.8,10.9 1.2,6.2 C0.6,1.5 -2.2,8.4 -2.2,8.4 L1.4,14.7 L3.6,17.2 L7.7,16.4 L7.7,16.4 Z" id="Shape" fill="#000000" fill-rule="nonzero" opacity="0.1" mask="url(#mask-30)"></path>
                            </g>
                        </g>
                    </g>
                </g>
            </g>
            <path d="M637.6,343.5 C637,343.5 635.6,344.9 635.2,345.3 C637.4,339.5 635.2,334.2 630.7,331.1 C629.9,329.8 629.2,329.1 629.2,329.1 C629.3,328.9 629.1,328.8 629.1,328.6 C628.5,326.3 627.9,324.3 627.2,322.6 L625.7,322.6 C625.6,322.5 625.6,322.3 625.5,322.1 L626.9,321.7 C626.8,321.3 626.6,321 626.5,320.7 C629.4,319.6 631.7,318 631.8,317.9 C631.9,317.8 631.9,317.7 631.9,317.6 C632.2,317.4 632.6,317 632.9,316.8 C633.8,316 634.7,315 635.6,313.8 C636.8,312.4 642.4,299.9 638.9,291.7 C636.7,292.8 635.7,294.3 633.3,296 L633.3,295.4 C633.3,295.4 631.7,291.6 624.9,285.7 C623.2,284.2 620.4,283.1 618.1,282.1 L614.8,409 C616.7,409 621.6,408.7 621.6,408.7 L622.6,408.9 L624.2,408.9 C624.5,408.7 624.8,408.7 625,408.4 C631.3,406.2 635.8,387.3 629.3,384.1 C629.3,383.7 629.3,383.2 629.2,382.8 L629.3,382.8 C629.3,382.8 629.1,378.2 627.9,374.2 C632,372.4 634.4,367.6 633.8,367.9 C634,367.6 634.1,367.4 634.1,367.3 C636.3,363.3 638.2,354 635.4,347.6 L635.9,346.9 L635.9,346.8 C637,345.6 638.1,343.5 637.6,343.5 L637.6,343.5 Z" id="Shape" fill="#000000" fill-rule="nonzero" opacity="0.1"></path>
            <g id="Group" transform="translate(581.000000, 277.000000)">
                <g transform="translate(1.000000, 56.000000)" id="Clipped">
                    <g>
                        <mask id="mask-32" fill="white">
                            <use xlink:href="#path-31"></use>
                        </mask>
                        <g id="E"></g>
                        <ellipse id="Oval" fill="#875D3D" fill-rule="nonzero" mask="url(#mask-32)" cx="7.579" cy="8.711" rx="11" ry="11.4"></ellipse>
                    </g>
                </g>
                <g transform="translate(1.000000, 56.000000)" id="Clipped">
                    <g>
                        <mask id="mask-34" fill="white">
                            <use xlink:href="#path-33"></use>
                        </mask>
                        <g id="G"></g>
                        <path d="M8.8,-1.2 L3.9,4 C3.9,4 0.3,11.6 6.3,18.1 L12.5,14.8 L8.8,-1.2 Z" id="Shape" fill="#000000" fill-rule="nonzero" opacity="0.05" mask="url(#mask-34)"></path>
                    </g>
                </g>
                <g transform="translate(1.000000, 56.000000)" id="Clipped">
                    <g>
                        <mask id="mask-36" fill="white">
                            <use xlink:href="#path-35"></use>
                        </mask>
                        <g id="I"></g>
                        <path d="M-0.7,10 L1.1,10.6 C1.1,10.6 3.5,14 4.2,17 C3.8,16.8 1.5,16.7 1.5,16.7 L-0.7,10 Z" id="Shape" fill="#704C35" fill-rule="nonzero" mask="url(#mask-36)"></path>
                    </g>
                </g>
                <g transform="translate(43.000000, 54.000000)" id="Clipped">
                    <g>
                        <mask id="mask-38" fill="white">
                            <use xlink:href="#path-37"></use>
                        </mask>
                        <g id="K"></g>
                        <ellipse id="Oval" fill="#875D3D" fill-rule="nonzero" mask="url(#mask-38)" cx="4.838" cy="11.312" rx="11" ry="11.4"></ellipse>
                    </g>
                </g>
                <g transform="translate(43.000000, 54.000000)" id="Clipped">
                    <g>
                        <mask id="mask-40" fill="white">
                            <use xlink:href="#path-39"></use>
                        </mask>
                        <g id="M"></g>
                        <path d="M1.6,0.7 L5.2,1.3 C5.2,1.3 12.8,9.6 6.4,18.6 L-2.2,16.7 L1.6,0.7 Z" id="Shape" fill="#000000" fill-rule="nonzero" opacity="0.05" mask="url(#mask-40)"></path>
                    </g>
                </g>
                <g transform="translate(43.000000, 54.000000)" id="Clipped">
                    <g>
                        <mask id="mask-42" fill="white">
                            <use xlink:href="#path-41"></use>
                        </mask>
                        <g id="O"></g>
                        <path d="M13.1,12.6 L11.3,13.2 C11.3,13.2 8.9,16.6 8.2,19.6 C8.6,19.4 10.9,19.3 10.9,19.3 L13.1,12.6 L13.1,12.6 Z" id="Shape" fill="#704C35" fill-rule="nonzero" mask="url(#mask-42)"></path>
                    </g>
                </g>
                <g transform="translate(4.000000, 36.000000)" id="Clipped">
                    <g>
                        <g>
                            <mask id="mask-44" fill="white">
                                <use xlink:href="#path-43"></use>
                            </mask>
                            <g id="Q"></g>
                            <polygon id="Shape" fill="#966945" fill-rule="nonzero" mask="url(#mask-44)" points="-3.5 -4.3 49 -4.3 49 42.1 -3.5 42.1"></polygon>
                        </g>
                    </g>
                    <g>
                        <g>
                            <mask id="mask-46" fill="white">
                                <use xlink:href="#path-45"></use>
                            </mask>
                            <g id="S"></g>
                            <path d="M-2.7,16.4 C-2.7,16.4 13.4,8.2 31.5,15.7 C31.5,15.7 19.4,8.7 5.4,12 L-2.7,16.4 Z" id="Shape" fill="#000000" fill-rule="nonzero" opacity="0.1" mask="url(#mask-46)"></path>
                        </g>
                    </g>
                    <g>
                        <g>
                            <mask id="mask-48" fill="white">
                                <use xlink:href="#path-47"></use>
                            </mask>
                            <g id="U"></g>
                            <path d="M35.2,-1.7 L35.3,2 C35.3,2 38.5,11.5 38.2,17.2 C38.2,17.2 42.8,30.9 37.4,35 C32,39.1 43.6,38.2 43.6,38.2 L50.8,32 L49.3,18.2 L35.2,-1.7 Z" id="Shape" fill="#000000" fill-rule="nonzero" opacity="0.05" mask="url(#mask-48)"></path>
                        </g>
                    </g>
                </g>
                <g opacity="0.1" transform="translate(46.000000, 69.000000)" id="Shape" fill-rule="nonzero" fill="#000000">
                    <polygon points="5.2 0.8 5.4 0.3 0.6 2.3 1.1 4.5 5.2 0.8"></polygon>
                    <path d="M5.4,0.3 C5.4,0.3 7.1,1.4 7.6,2.6 L6.9,3.7 L5.2,3 L5.4,0.3"></path>
                </g>
                <g>
                    <g transform="translate(32.000000, 15.000000)" id="Clipped">
                        <g>
                            <mask id="mask-50" fill="white">
                                <use xlink:href="#path-49"></use>
                            </mask>
                            <g id="X"></g>
                            <path d="M25.1,-2.1 L-0.3,18.3 L-3.8,27.6 L-0.7,31.8 L12.8,31.1 L21,26.6 L25.5,20.2 C25.5,20.2 30.8,2.4 25.1,-2.1 Z" id="Shape" fill="#875D3D" fill-rule="nonzero" mask="url(#mask-50)"></path>
                        </g>
                    </g>
                    <g transform="translate(32.000000, 15.000000)" id="Clipped">
                        <g>
                            <mask id="mask-52" fill="white">
                                <use xlink:href="#path-51"></use>
                            </mask>
                            <g id="Z"></g>
                            <path d="M26.6,-0.2 L25.9,-8.32667268e-17 C25.9,-8.32667268e-17 26.1,24.6 4.9,28.2 L5.8,32.4 L19.6,29.2 C19.6,29.2 30.3,12.5 26.6,-0.2 Z" id="Shape" fill="#000000" fill-rule="nonzero" opacity="0.05" mask="url(#mask-52)"></path>
                        </g>
                    </g>
                    <g transform="translate(39.000000, 27.000000)" id="Clipped">
                        <g>
                            <mask id="mask-54" fill="white">
                                <use xlink:href="#path-53"></use>
                            </mask>
                            <g id="ab"></g>
                            <path d="M0.5,1.9 L2,0.8 C2,0.8 11.3,5.9 11.3,13.7 C11.3,13.7 10.3,14.6 10.1,14.8 C10.1,14.7 7.6,5.1 0.5,1.9 Z" id="Shape" fill="#A52828" fill-rule="nonzero" mask="url(#mask-54)"></path>
                        </g>
                    </g>
                    <g transform="translate(39.000000, 27.000000)" id="Clipped">
                        <g>
                            <mask id="mask-56" fill="white">
                                <use xlink:href="#path-55"></use>
                            </mask>
                            <g id="ad"></g>
                            <path d="M10.8,9.8 C10.8,9.8 9.3,11.6 8.5,11.9 C7.7,12.2 9.3,14.9 9.3,14.9 L10.1,15.1 L11.9,14.3 L10.8,9.8 L10.8,9.8 Z" id="Shape" fill="#000000" fill-rule="nonzero" opacity="0.1" mask="url(#mask-56)"></path>
                        </g>
                    </g>
                    <g transform="translate(31.000000, 28.000000)" id="Clipped">
                        <g>
                            <g>
                                <mask id="mask-58" fill="white">
                                    <use xlink:href="#path-57"></use>
                                </mask>
                                <g id="af"></g>
                                <path d="M9,0.5 C9,0.5 17.7,5.7 18.3,13.5 C18.3,13.5 18.3,13.7 18.2,13.8 C18,14.1 7.6,21.7 2.2,14.6 C-3.1,7.5 8.5,0.5 8.5,0.5 C8.5,0.5 8.9,0.4 9,0.5 Z" id="Shape" fill="#BB3331" fill-rule="nonzero" mask="url(#mask-58)"></path>
                            </g>
                        </g>
                        <g>
                            <g>
                                <mask id="mask-60" fill="white">
                                    <use xlink:href="#path-59"></use>
                                </mask>
                                <g id="ah"></g>
                                <path d="M17.8,9.4 C17.8,9.4 14.2,12.9 9.4,14.1 C4.6,15.3 10.9,18.4 10.9,18.4 L16.8,16.1 L19.2,13.5 L17.8,9.4 Z" id="Shape" fill="#000000" fill-rule="nonzero" opacity="0.1" mask="url(#mask-60)"></path>
                            </g>
                        </g>
                    </g>
                    <g>
                        <path d="M50.8,19.4 C50.8,19.4 49.5,38.7 36.2,41.9 L30.7,31.4 L50.8,19.4 Z" id="Shape" fill="#000000" fill-rule="nonzero" opacity="0.1"></path>
                        <path d="M4.3,9.9 L8.4,10.7 L8.2,15 L4.3,17.9 C4.3,18 3.4,13.8 4.3,9.9 L4.3,9.9 Z" id="Shape" fill="#966945" fill-rule="nonzero"></path>
                        <polygon id="Shape" fill="#875D3D" fill-rule="nonzero" points="8.4 11.7 8.5 10.8 4.3 9.9 6.8 13.5 8.4 11.7"></polygon>
                        <g transform="translate(0.000000, 2.000000)" id="Clipped">
                            <g>
                                <mask id="mask-62" fill="white">
                                    <use xlink:href="#path-61"></use>
                                </mask>
                                <g id="aj"></g>
                                <path d="M1.2,23.3 C2,14.2 7.4,5.2 16.5,1.6 C25.6,-2 35.7,0.8 42.5,6.8 C49.3,12.8 50.9,16.7 50.9,16.7 C50.9,16.7 50.9,32 31.7,39.7 C12.5,47.3 2,36.2 2,36.2 C2,36.2 0.4,32.4 1.2,23.3 Z" id="Shape" fill="#966945" fill-rule="nonzero" mask="url(#mask-62)"></path>
                            </g>
                        </g>
                        <g transform="translate(0.000000, 2.000000)" id="Clipped">
                            <g>
                                <mask id="mask-64" fill="white">
                                    <use xlink:href="#path-63"></use>
                                </mask>
                                <g id="al"></g>
                                <path d="M0.5,36.4 L1.9,36.3 C1.9,36.3 12.7,42.6 26.3,36.8 C39.9,31 50.8,16.8 50.8,16.8 L51.7,19.4 L46.5,33.3 L27.2,42.7 C27.2,42.7 6.5,43.7 6.4,43.6 C6.3,43.5 0.5,36.4 0.5,36.4 L0.5,36.4 Z" id="Shape" fill="#000000" fill-rule="nonzero" opacity="0.05" mask="url(#mask-64)"></path>
                            </g>
                        </g>
                        <g transform="translate(26.000000, 0.000000)" id="Shape" fill-rule="nonzero">
                            <path d="M2.7,0.2 L0.3,3.6 L3.5,6.6 L8.3,6 C8.2,6.1 6,2.4 2.7,0.2 Z" fill="#966945"></path>
                            <polygon fill="#875D3D" points="1 4.3 0.3 3.7 2.7 0.2 3.3 4.5 1 4.3"></polygon>
                        </g>
                    </g>
                    <g transform="translate(8.000000, 35.000000)">
                        <path d="M3.4,11.8 C3.3,12 0.2,16.7 0.2,16.7 C0.2,16.7 5.6,14.3 12.9,14.3 C20.2,14.3 30.9,18 31.9,18.3 C32.9,18.6 32.1,15.1 32.1,15.1 L3.4,11.8 Z" id="Shape" fill="#000000" fill-rule="nonzero" opacity="0.1"></path>
                        <g transform="translate(0.000000, 1.000000)" id="Clipped">
                            <g>
                                <mask id="mask-66" fill="white">
                                    <use xlink:href="#path-65"></use>
                                </mask>
                                <g id="an"></g>
                                <path d="M4.7,4.4 C4.7,4.4 16.6,-1.5 31.3,2 C31.3,2 35.8,4 39.1,17.2 C39.1,17.2 36,18.4 32.8,17.5 C29.6,16.6 14,8.9 0.2,15.6 C0.2,15.6 0.1,15.2 0.2,15 C0.3,14.7 1.1,14 1.1,13.8 C1.1,13.8 0.9,13.6 1,13.5 C1.1,13.4 1.3,13.4 1.4,13.1 C1.5,12.8 2.9,10 3.1,8.8 C3.3,7.6 4.5,4.5 4.7,4.4 Z" id="Shape" fill="#CA3836" fill-rule="nonzero" mask="url(#mask-66)"></path>
                            </g>
                        </g>
                        <g transform="translate(0.000000, 1.000000)" id="Clipped">
                            <g>
                                <mask id="mask-68" fill="white">
                                    <use xlink:href="#path-67"></use>
                                </mask>
                                <g id="ap"></g>
                                <path d="M31.2,3.2 C31.2,3.2 34.5,8.9 33.9,10.4 C33.3,11.9 30.6,12.6 33.4,13.5 C36.2,14.4 37.8,16.2 36.5,16.4 C35.1,16.6 29.5,14.3 27.5,14.2 C25.5,14.1 33.3,17.1 34.3,17.2 C35.3,17.3 38.9,17.4 40.4,16.3 C41.9,15.2 34.7,2.9 34.7,2.9 L31.2,3.2 L31.2,3.2 Z" id="Shape" fill="#000000" fill-rule="nonzero" opacity="0.1" mask="url(#mask-68)"></path>
                            </g>
                        </g>
                        <g transform="translate(0.000000, 1.000000)" id="Clipped">
                            <g>
                                <mask id="mask-70" fill="white">
                                    <use xlink:href="#path-69"></use>
                                </mask>
                                <g id="ar"></g>
                                <path d="M1,12.7 C1.1,12.5 11.9,6.4 23.9,10.3 C23.9,10.3 15.3,8.3 1.4,13.2 C-12.5,18.1 -0.8,14.4 -0.8,14.4 L1.1,13.8 C1.1,13.8 14.8,7.6 29.1,13.7 C29.1,13.7 14.3,8.7 -0.3,14.7 L-6.7,16.3 C-6.7,16.3 -5.1,13.7 -4.9,13.7 C-4.7,13.7 1,12.7 1,12.7 L1,12.7 Z" id="Shape" fill="#000000" fill-rule="nonzero" opacity="0.1" mask="url(#mask-70)"></path>
                            </g>
                        </g>
                        <g transform="translate(0.000000, 1.000000)" id="Clipped">
                            <g>
                                <mask id="mask-72" fill="white">
                                    <use xlink:href="#path-71"></use>
                                </mask>
                                <g id="at"></g>
                                <path d="M3.6,4.9 L3.1,7.5 C3.1,7.5 6.5,3.5 14.7,2.9 C22.9,2.3 34.1,4.4 34.1,4.4 L32,2 C32,2 23.2,0.1 15.1,0.7 C7.1,1.1 3.6,4.9 3.6,4.9 Z" id="Shape" fill="#000000" fill-rule="nonzero" opacity="0.1" mask="url(#mask-72)"></path>
                            </g>
                        </g>
                        <path d="M3.9,5.6 L3.6,5.4 C3.6,5.4 6.2,1.7 13.5,1 C20.9,0.3 30.5,2 32,2.4 L13.5,3.2 L3.9,5.6 L3.9,5.6 Z" id="Shape" fill="#000000" fill-rule="nonzero" opacity="0.1"></path>
                        <path d="M3.6,5.4 L3.1,8 C3.1,8 6.5,4 14.7,3.4 C22.9,2.8 34.1,4.9 34.1,4.9 L32,2.5 C32,2.5 23.2,0.6 15.1,1.2 C7.1,1.7 3.6,5.4 3.6,5.4 L3.6,5.4 Z" id="Shape" fill="#D74141" fill-rule="nonzero"></path>
                    </g>
                </g>
                <path d="M48.4,72.1 C47.6,68.5 47,67.5 44.4,64.5 C44.2,63.4 43.8,62.2 43.3,61.1 L41.6,61.8 C38.6,59.2 34.9,57.3 30.8,56.6 C26.7,55.8 22.6,56.3 18.8,57.6 L17.5,56.4 C16.6,57.3 15.9,58.3 15.2,59.2 C11.7,61.1 6.3,66.4 5.3,69.6 C2.7,78.2 50.3,81 48.4,72.1 L48.4,72.1 Z" id="Shape" fill="#000000" fill-rule="nonzero" opacity="0.1"></path>
            </g>
            <g id="Group" transform="translate(580.000000, 390.000000)">
                <g id="Clipped">
                    <g>
                        <mask id="mask-74" fill="white">
                            <use xlink:href="#path-73"></use>
                        </mask>
                        <g id="av"></g>
                        <ellipse id="Oval" fill="#966945" fill-rule="nonzero" mask="url(#mask-74)" cx="6.534" cy="7.863" rx="13" ry="11.4"></ellipse>
                    </g>
                </g>
                <g id="Clipped">
                    <g>
                        <mask id="mask-76" fill="white">
                            <use xlink:href="#path-75"></use>
                        </mask>
                        <g id="ax"></g>
                        <path d="M5.2,-3.4 L1.2,2.2 C1.2,2.2 2.2,11.8 11.1,14.2 L16,9 L5.2,-3.4 Z" id="Shape" fill="#000000" fill-rule="nonzero" opacity="0.05" mask="url(#mask-76)"></path>
                    </g>
                </g>
                <g id="Clipped">
                    <g>
                        <mask id="mask-78" fill="white">
                            <use xlink:href="#path-77"></use>
                        </mask>
                        <g id="az"></g>
                        <path d="M-1.4,13.9 L0.7,13.4 C0.7,13.4 4.7,15 6.7,17.4 C6.2,17.5 3.8,18.6 3.8,18.6 L-1.4,13.9 L-1.4,13.9 Z" id="Shape" fill="#7A5436" fill-rule="nonzero" mask="url(#mask-78)"></path>
                    </g>
                </g>
            </g>
            <g id="Group" transform="translate(612.000000, 392.000000)">
                <g id="Clipped">
                    <g>
                        <mask id="mask-80" fill="white">
                            <use xlink:href="#path-79"></use>
                        </mask>
                        <g id="aB"></g>
                        <ellipse id="Oval" fill="#966945" fill-rule="nonzero" mask="url(#mask-80)" cx="7.958" cy="7.275" rx="13" ry="11.4"></ellipse>
                    </g>
                </g>
                <g id="Clipped">
                    <g>
                        <mask id="mask-82" fill="white">
                            <use xlink:href="#path-81"></use>
                        </mask>
                        <g id="aD"></g>
                        <path d="M12.2,-3.5 L14.7,2.9 C14.7,2.9 11.4,11.9 2.2,12.1 L-1.3,5.8 L12.2,-3.5 Z" id="Shape" fill="#000000" fill-rule="nonzero" opacity="0.05" mask="url(#mask-82)"></path>
                    </g>
                </g>
                <g id="Clipped">
                    <g>
                        <mask id="mask-84" fill="white">
                            <use xlink:href="#path-83"></use>
                        </mask>
                        <g id="aF"></g>
                        <path d="M14.3,14.9 L12.4,13.9 C12.4,13.9 8.2,14.5 5.6,16.3 C6.1,16.5 8.1,18.2 8.1,18.2 L14.3,14.9 L14.3,14.9 Z" id="Shape" fill="#7A5436" fill-rule="nonzero" mask="url(#mask-84)"></path>
                    </g>
                </g>
            </g>
            <g id="Group" transform="translate(583.000000, 365.000000)">
                <g id="Clipped">
                    <g>
                        <mask id="mask-86" fill="white">
                            <use xlink:href="#path-85"></use>
                        </mask>
                        <g id="aH"></g>
                        <polygon id="Shape" fill="#966945" fill-rule="nonzero" mask="url(#mask-86)" points="-4.2 -6.1 48.3 -6.1 48.3 40.3 -4.2 40.3"></polygon>
                    </g>
                </g>
                <g id="Clipped">
                    <g>
                        <mask id="mask-88" fill="white">
                            <use xlink:href="#path-87"></use>
                        </mask>
                        <g id="aJ"></g>
                        <path d="M-5.7,21.9 C-5.7,21.9 -1.8,18.4 4.7,15.9 C11.5,13.3 20.9,11.9 31.2,16.6 C51.3,25.7 26,43.3 26,43.3 L2.9,40.3 L-5.7,21.9 Z" id="Shape" fill="#B48363" fill-rule="nonzero" mask="url(#mask-88)"></path>
                    </g>
                </g>
                <g id="Clipped">
                    <g>
                        <mask id="mask-90" fill="white">
                            <use xlink:href="#path-89"></use>
                        </mask>
                        <g id="aL"></g>
                        <path d="M40.5,7 C40.5,7 42.7,21.4 40.2,25.9 L46.5,21.4 C46.5,21.4 43.7,8.1 42.7,6.5 L40.5,7 Z" id="Shape" fill="#000000" fill-rule="nonzero" opacity="0.05" mask="url(#mask-90)"></path>
                    </g>
                </g>
            </g>
            <g id="Group" transform="translate(581.000000, 334.000000)">
                <g transform="translate(28.000000, 12.000000)" id="Clipped">
                    <g>
                        <mask id="mask-92" fill="white">
                            <use xlink:href="#path-91"></use>
                        </mask>
                        <g id="aN"></g>
                        <path d="M4.9,20.2 C4.9,20.2 14.8,7 23.4,0.3 C29.4,7.9 25.2,20.8 24.3,22.6 C21.6,27.6 20.3,30 9.4,34.1 C-7.5,40.5 4.9,20.2 4.9,20.2 Z" id="Shape" fill="#875D3D" fill-rule="nonzero" mask="url(#mask-92)"></path>
                    </g>
                </g>
                <path d="M48.7,34.5 C48.7,34.5 50.8,35.8 51.5,36 C51.5,36 51.7,35.9 51.5,36.5 C51.3,37.1 49,41.3 44.8,42.8 L41.3,39.5 L46.8,34.6 L48.7,34.6 L48.7,34.5 L48.7,34.5 Z" id="Shape" fill="#BB3331" fill-rule="nonzero"></path>
                <path d="M48.9,33.8 C48.9,33.8 51,35.1 51.8,35.3 L51.5,35.9 C51.5,35.9 50,35.6 48.9,34.8 C47.8,34.1 48.9,33.8 48.9,33.8 Z" id="Shape" fill="#A52828" fill-rule="nonzero"></path>
                <path d="M50.8,20.6 C49.5,16 46.9,11.6 43.3,8.3 C40.1,5.3 3.8,38.9 24.1,42.6 C44.4,46.4 52.6,33.4 52.6,33.4 C52.6,33.4 53.4,29.3 50.8,20.6 L50.8,20.6 Z" id="Shape" fill="#000000" fill-rule="nonzero" opacity="0.05"></path>
                <g transform="translate(2.000000, 18.000000)" id="Clipped">
                    <g>
                        <mask id="mask-94" fill="white">
                            <use xlink:href="#path-93"></use>
                        </mask>
                        <g id="aP"></g>
                        <path d="M16.4,10.5 C16.4,10.5 2,-0.9 1.7,1.1 C1.7,1.1 -1.9,9.2 4.5,19 C14.4,34.2 16.4,10.5 16.4,10.5 Z" id="Shape" fill="#80583B" fill-rule="nonzero" mask="url(#mask-94)"></path>
                    </g>
                </g>
                <g transform="translate(2.000000, 18.000000)" id="Clipped">
                    <g>
                        <mask id="mask-96" fill="white">
                            <use xlink:href="#path-95"></use>
                        </mask>
                        <g id="aR"></g>
                        <path d="M-1.9,7.7 C-1.9,7.7 2.7,18.9 12.3,21.4 L13.6,7.7 L10.6,-0.8 L-3.1,1.2 L-1.9,7.7 Z" id="Shape" fill="#000000" fill-rule="nonzero" opacity="0.05" mask="url(#mask-96)"></path>
                    </g>
                </g>
                <path d="M9.3,32.4 C9.3,32.4 7.3,33.9 4.9,34.1 L4.9,34.5 C4.9,34.9 7.6,40.2 9.3,40.9 L11.9,36.2 L11.9,32.3 L9.3,32.4 Z" id="Shape" fill="#BB3331" fill-rule="nonzero"></path>
                <path d="M8.9,31.8 C8.9,31.8 6.2,32.9 4.5,33.1 C4.5,33.1 4.7,33.8 4.9,34 C4.9,34 6.9,34 9.3,32.6 L8.9,31.8 Z" id="Shape" fill="#A52828" fill-rule="nonzero"></path>
                <path d="M3.8,29.2 C3.8,29.2 6.4,36.9 10.4,38.9 L12,34 L3.8,29.2 L3.8,29.2 Z" id="Shape" fill="#000000" fill-rule="nonzero" opacity="0.05"></path>
                <path d="M10.9,36.4 C10.9,36.4 7,44.3 6.4,46.8 C6.4,46.8 5.8,46.8 5.8,47.2 L5.8,47.6 C5.8,47.6 5.6,47.7 5.5,48.3 C5.3,48.9 5.1,49.2 5.1,49.2 C5.1,49.2 11.1,47.4 19.2,47.4 C27.3,47.4 36.8,52.2 39.5,52.2 C42.2,52.2 47.1,51.2 47.1,51.2 C47.1,51.2 46.9,42.8 44,38.9 C43.8,38.9 34,31.8 10.9,36.4 Z" id="Shape" fill="#000000" fill-rule="nonzero" opacity="0.1"></path>
                <g transform="translate(4.000000, 34.000000)" id="Clipped">
                    <g>
                        <g>
                            <mask id="mask-98" fill="white">
                                <use xlink:href="#path-97"></use>
                            </mask>
                            <g id="aT"></g>
                            <path d="M6.9,2.1 C6.9,2.1 3,10 2.4,12.5 C2.4,12.5 1.8,12.5 1.8,12.9 L1.8,13.3 C1.8,13.3 1.2,13.5 1,14.1 C0.8,14.7 1,15.3 1,15.3 C1,15.3 7,13.2 15.1,13.2 C23.2,13.2 32.7,18 35.4,18 C38.1,18 43.2,17.3 43.2,17.3 C43.2,17.3 42.9,8.6 39.9,4.7 C39.8,4.6 30,-2.5 6.9,2.1 Z" id="Shape" fill="#CA3836" fill-rule="nonzero" mask="url(#mask-98)"></path>
                        </g>
                    </g>
                    <g>
                        <g>
                            <mask id="mask-100" fill="white">
                                <use xlink:href="#path-99"></use>
                            </mask>
                            <g id="aV"></g>
                            <path d="M27.5,9.5 L31.5,9.9 L31.4,11.2 L29.4,11 L29.4,11.2 L28.5,11.1 L28.5,10.9 L27.4,10.8 L27.5,9.5 L27.5,9.5 Z M27.6,10.6 L28,10.6 L28.1,9.9 L28.3,9.9 L28.2,10.6 L28.4,10.6 L28.5,9.7 L27.6,9.6 L27.6,10.6 Z M28.8,9.8 L28.7,10.9 L29.1,10.9 L29.1,10.7 L29.5,10.7 L29.6,9.8 L28.8,9.8 L28.8,9.8 Z M29.2,10.1 L29.4,10.1 L29.4,10.6 L29.2,10.6 L29.2,10.1 Z M29.9,9.9 L29.8,10.8 L30.2,10.8 L30.3,10.1 L30.5,10.1 L30.4,10.8 L30.6,10.8 L30.7,10.1 L30.9,10.1 L30.8,10.8 L31,10.8 L31.1,9.9 L29.9,9.9 L29.9,9.9 Z" id="Shape" fill="#FFFFFF" fill-rule="nonzero" mask="url(#mask-100)"></path>
                        </g>
                    </g>
                    <g>
                        <g>
                            <mask id="mask-102" fill="white">
                                <use xlink:href="#path-101"></use>
                            </mask>
                            <g id="aX"></g>
                            <g id="Group" opacity="0.1" mask="url(#mask-102)" fill-rule="nonzero" fill="#000000">
                                <g transform="translate(4.000000, 6.000000)" id="Shape">
                                    <path d="M34.7,0.8 C34.7,0.8 36,6.1 35,7.4 C34,8.7 35.1,8.5 35.8,9.1 C36.5,9.7 30.9,9.6 29.4,9.1 C28,8.6 31.6,10.6 34.1,10.3 C36.6,10 31,11.8 28.1,11.1 C25.2,10.5 34,13.7 37.6,12.8 C41.2,11.9 40.2,11 40.2,11 L38.5,0.1 L34.7,0.8 Z M0.4,6.4 C0.4,6.4 11.4,2.4 25.3,8.2 C25.3,8.2 15.9,3.5 7.5,3.7 C7.5,3.7 10,4.1 11.8,4.5 C11.7,4.5 5.2,4.2 0.4,6.4 L0.4,6.4 Z"></path>
                                </g>
                            </g>
                        </g>
                    </g>
                </g>
                <polygon id="Shape" fill="#966945" fill-rule="nonzero" points="23.3 37.2 20.3 40.4 24.2 42.3 29 41.7 23.3 37.2"></polygon>
                <g>
                    <path d="M43.3,5.6 L39.4,7.2 L40.5,11.4 L44.9,13.5 C44.9,13.5 45,9.2 43.3,5.6 L43.3,5.6 Z" id="Shape" fill="#966945" fill-rule="nonzero"></path>
                    <polygon id="Shape" fill="#875D3D" fill-rule="nonzero" points="39.7 8.2 39.5 7.2 43.3 5.6 41.6 9.6 39.7 8.2"></polygon>
                    <path d="M17.6,0.8 L20.6,3.7 L18.1,7.2 L13.3,7.6 C13.3,7.6 14.7,3.6 17.6,0.8 Z" id="Shape" fill="#966945" fill-rule="nonzero"></path>
                    <polygon id="Shape" fill="#875D3D" fill-rule="nonzero" points="20 4.5 20.6 3.7 17.6 0.8 17.8 5.2 20 4.5"></polygon>
                    <g id="Clipped">
                        <g>
                            <g>
                                <mask id="mask-104" fill="white">
                                    <use xlink:href="#path-103"></use>
                                </mask>
                                <g id="aZ"></g>
                                <path d="M50.1,19.4 C47.6,10.7 40.5,2.9 30.9,1.1 C21.3,-0.7 11.9,4.1 6.4,11.3 C0.9,18.5 0.1,22.7 0.1,22.7 C0.1,22.7 3.1,37.7 23.4,41.5 C43.7,45.3 51.9,32.3 51.9,32.3 C51.9,32.3 52.6,28.1 50.1,19.4 L50.1,19.4 Z" id="Shape" fill="#966945" fill-rule="nonzero" mask="url(#mask-104)"></path>
                            </g>
                        </g>
                        <g>
                            <g>
                                <mask id="mask-106" fill="white">
                                    <use xlink:href="#path-105"></use>
                                </mask>
                                <g id="bb"></g>
                                <path d="M-4.2,19.8 L0,22.6 C0,22.6 10.4,41.4 37.2,41.4 C60,41.4 -3.6,45.6 -3.6,45.6 L-4.2,19.8 L-4.2,19.8 Z" id="Shape" fill="#000000" fill-rule="nonzero" opacity="0.05" mask="url(#mask-106)"></path>
                            </g>
                        </g>
                    </g>
                    <g transform="translate(19.000000, 14.000000)" fill-rule="nonzero" id="Oval">
                        <ellipse fill="#875D3D" transform="translate(8.303000, 5.978000) rotate(-79.460000) translate(-8.303000, -5.978000) " cx="8.303" cy="5.978" rx="3.7" ry="7.7"></ellipse>
                        <ellipse fill="#000000" transform="translate(8.442983, 5.300183) rotate(-79.460000) translate(-8.442983, -5.300183) " cx="8.44298313" cy="5.30018292" rx="3.7" ry="7.7"></ellipse>
                    </g>
                    <g transform="translate(17.000000, 12.000000)" fill-rule="nonzero">
                        <path d="M3.4,2.3 C3.2,3.2 2.3,3.8 1.4,3.6 C0.5,3.4 -0.1,2.5 0.1,1.6 C0.3,0.7 1.2,0.1 2.1,0.3 C3,0.5 3.6,1.4 3.4,2.3 Z" id="Shape" fill="#B48363"></path>
                        <g>
                            <circle id="Oval" fill="#000000" cx="2.2" cy="1.8" r="1.3"></circle>
                            <path d="M2.7,1.5 C2.6,2 1.8,1.9 1.9,1.4 C2,0.9 2.8,1 2.7,1.5 Z" id="Shape" fill="#FFFFFF"></path>
                        </g>
                        <g transform="translate(18.000000, 3.000000)">
                            <path d="M0.9,2.2 C0.7,3.1 1.3,4 2.2,4.2 C3.1,4.4 4,3.8 4.2,2.9 C4.4,2 3.8,1.1 2.9,0.9 C1.9,0.7 1.1,1.3 0.9,2.2 Z" id="Shape" fill="#B48363"></path>
                            <g transform="translate(1.000000, 0.000000)">
                                <circle id="Oval" fill="#000000" cx="1.3" cy="2.1" r="1.3"></circle>
                                <path d="M1.6,1.9 C1.5,2.4 0.7,2.3 0.8,1.8 C0.9,1.2 1.7,1.3 1.6,1.9 Z" id="Shape" fill="#FFFFFF"></path>
                            </g>
                        </g>
                    </g>
                </g>
                <g transform="translate(9.000000, 36.000000)">
                    <g opacity="0.1" transform="translate(0.000000, 1.000000)" id="Shape" fill-rule="nonzero" fill="#000000">
                        <path d="M35.9,4 C35.9,4 32.9,7.3 20,7 L19.2,5.9 L19,6.7 C19,6.7 17.2,5.2 15.2,5.2 L18,4.8 L32.3,4.4 L35.9,4 Z M0.9,0.9 L0.8,1.4 C0.8,1.4 6.3,5.4 10.3,5.4 L11.1,4.5 L11.5,5.2 C11.5,5.2 13.6,4.3 15,5.3 L11.6,3.2 L0.9,0.9 L0.9,0.9 Z"></path>
                    </g>
                    <g transform="translate(14.000000, 6.000000)" fill-rule="nonzero">
                        <path d="M2.8,0 C2.8,0 2.2,2.3 2.2,2.6 L0.7,2.3 L1.2,0.4 L2,0 L2.8,0 Z" id="Shape" fill="#AA3030"></path>
                        <circle id="Oval" fill="#7C2323" cx="1.8" cy="1.3" r="1"></circle>
                    </g>
                    <path d="M15.2,6.3 C15.2,6.3 16,5 17.8,5 L19,6.1 L18.8,7.2 C18.8,7.2 17.3,5.8 15.2,6.3 L15.2,6.3 Z M11.9,3.8 L12.2,3.7 C12.2,3.7 14.5,4.4 15.2,6.4 C15.2,6.4 12.4,4.9 11.5,5.6 L10.9,4.6 L11.9,3.8 L11.9,3.8 Z" id="Shape" fill="#BB3331" fill-rule="nonzero"></path>
                    <path d="M0.7,0.5 C0.7,0.5 4.4,3.5 11.3,4.8 M36.1,3.8 C36.1,3.8 29.2,7.3 18.8,6.1" id="Shape"></path>
                </g>
            </g>
        </g>
    </g>
</svg>